#!OML:ASF H:\Not Pregnant\Project 1\Capture day 1\Session 1\non-pregnant.ASF
:FULLY-SPECIFIED
:DEGREES
933
root 5.55851 16.1154 21.0233 9.71847 8.62614 -0.381147
lowerback -2.35089 2.02762 -1.07764
upperback -6.16825 2.65873 -1.65286
thorax -5.0267 1.34176 -1.16343
lowerneck 25.68 -11.5239 -29.7759
upperneck -18.9009 -20.3693 46.3268
head -0.0267581 -13.7295 25.7557
rclavicle 2.23136e-014 1.39149e-014
rhumerus -37.1864 5.5656 -98.3215
rradius 43.6241
rwrist 20.7714
rhand 1.93907 3.9987
rfingers 7.12502
rthumb 27.4463 -24.0217
lclavicle 2.23136e-014 1.39149e-014
lhumerus -53.4944 -23.5421 102.868
lradius 78.3732
lwrist 56.4312
lhand -28.8856 -7.15562
lfingers 7.12502
lthumb -2.24127 22.8124
rfemur -30.6667 7.60227 15.0162
rtibia 26.6761
rfoot -7.88298 8.65015
rtoes -24.8443
lfemur -11.6616 -7.60877 -17.9434
ltibia 21.6601
lfoot -18.6988 -25.2847
ltoes 1.54161
934
root 5.53527 16.1166 21.0786 9.70802 8.52572 -0.554396
lowerback -2.58595 2.11021 -0.907084
upperback -6.23228 2.77363 -1.6689
thorax -4.95055 1.39129 -1.269
lowerneck 25.7289 -11.4734 -29.8006
upperneck -18.726 -20.3599 46.3164
head 0.00478377 -13.7249 25.7674
rclavicle 5.76476e-015 -3.97569e-015
rhumerus -37.0762 5.1154 -98.0468
rradius 42.1602
rwrist 20.6749
rhand 1.2333 4.17025
rfingers 7.12502
rthumb 26.7711 -23.9554
lclavicle 5.76476e-015 -3.97569e-015
lhumerus -53.3346 -23.1144 102.834
lradius 78.2792
lwrist 56.2301
lhand -28.9728 -7.21287
lfingers 7.12502
lthumb -2.32546 22.7542
rfemur -30.5294 7.68791 15.3695
rtibia 26.7202
rfoot -8.04753 8.64704
rtoes -24.8117
lfemur -11.3733 -7.41757 -17.679
ltibia 21.5293
lfoot -18.8688 -25.2671
ltoes 1.36933
935
root 5.51317 16.1165 21.1343 9.68387 8.3882 -0.735044
lowerback -2.80166 2.19134 -0.717173
upperback -6.28874 2.88562 -1.68123
thorax -4.87612 1.43857 -1.38137
lowerneck 25.7152 -11.4214 -29.8434
upperneck -18.5108 -20.3511 46.3145
head 0.0644215 -13.7161 25.7743
rclavicle 6.11263e-015 4.77083e-015
rhumerus -36.9191 4.71873 -97.7721
rradius 40.6263
rwrist 20.5535
rhand 0.594084 4.27856
rfingers 7.12502
rthumb 26.1593 -23.9392
lclavicle 6.11263e-015 4.77083e-015
lhumerus -53.2088 -22.6128 102.781
lradius 78.2469
lwrist 56.0991
lhand -29.1161 -7.28349
lfingers 7.12502
lthumb -2.46384 22.682
rfemur -30.3824 7.71908 15.7452
rtibia 26.7693
rfoot -8.23832 8.73811
rtoes -24.7995
lfemur -11.0693 -7.22901 -17.416
ltibia 21.4244
lfoot -19.051 -25.1969
ltoes 1.175
936
root 5.49175 16.1157 21.189 9.66421 8.23028 -0.903862
lowerback -3.00505 2.27201 -0.536771
upperback -6.34598 2.99593 -1.69324
thorax -4.80948 1.48547 -1.48805
lowerneck 25.6889 -11.3715 -29.8872
upperneck -18.2862 -20.3451 46.3109
head 0.130141 -13.7075 25.7752
rclavicle -3.47873e-015 -5.56597e-015
rhumerus -36.7222 4.36077 -97.483
rradius 39.0492
rwrist 20.4566
rhand 0.00835268 4.29387
rfingers 7.12502
rthumb 25.5984 -24.0057
lclavicle -3.47873e-015 -5.56597e-015
lhumerus -53.114 -22.0581 102.727
lradius 78.259
lwrist 56.0231
lhand -29.2896 -7.35663
lfingers 7.12502
lthumb -2.63138 22.6069
rfemur -30.2473 7.70418 16.1136
rtibia 26.8257
rfoot -8.43948 8.89035
rtoes -24.8128
lfemur -10.7694 -7.0514 -17.169
ltibia 21.3287
lfoot -19.2405 -25.0884
ltoes 0.941348
937
root 5.47094 16.1142 21.243 9.64298 8.05501 -1.05502
lowerback -3.19355 2.34948 -0.373183
upperback -6.39861 3.10103 -1.70424
thorax -4.74696 1.5306 -1.58425
lowerneck 25.6541 -11.3288 -29.9297
upperneck -18.0753 -20.3439 46.302
head 0.195077 -13.7003 25.7668
rclavicle -3.8763e-015 -1.19271e-014
rhumerus -36.4852 4.04075 -97.18
rradius 37.4543
rwrist 20.4308
rhand -0.509396 4.20185
rfingers 7.12502
rthumb 25.1024 -24.1681
lclavicle -3.8763e-015 -1.19271e-014
lhumerus -53.0442 -21.4516 102.668
lradius 78.2996
lwrist 55.9751
lhand -29.4274 -7.43705
lfingers 7.12502
lthumb -2.76451 22.5248
rfemur -30.1164 7.65684 16.4661
rtibia 26.8905
rfoot -8.64635 9.08303
rtoes -24.8347
lfemur -10.4601 -6.89476 -16.9451
ltibia 21.2299
lfoot -19.4235 -24.9418
ltoes 0.682708
938
root 5.4509 16.1123 21.2955 9.62586 7.86496 -1.19098
lowerback -3.35836 2.42603 -0.219193
upperback -6.4561 3.20399 -1.71566
thorax -4.70306 1.57498 -1.67636
lowerneck 25.6022 -11.2874 -29.9775
upperneck -17.844 -20.3474 46.2901
head 0.271024 -13.6934 25.7503
rclavicle 2.25124e-014 2.38542e-014
rhumerus -36.2261 3.74858 -96.8604
rradius 35.8644
rwrist 20.5225
rhand -0.998977 4.03367
rfingers 7.12502
rthumb 24.6332 -24.4011
lclavicle 2.25124e-014 2.38542e-014
lhumerus -52.9998 -20.8095 102.61
lradius 78.3643
lwrist 55.9711
lhand -29.523 -7.4951
lfingers 7.12502
lthumb -2.8568 22.4655
rfemur -29.9981 7.5703 16.8045
rtibia 26.9621
rfoot -8.85887 9.32148
rtoes -24.8669
lfemur -10.1475 -6.76784 -16.743
ltibia 21.119
lfoot -19.5983 -24.7491
ltoes 0.372873
